<?xml version="1.0" encoding="utf-8"?>
<!-- Generator: Adobe Illustrator 16.0.0, SVG Export Plug-In . SVG Version: 6.00 Build 0)  -->
<!DOCTYPE svg PUBLIC "-//W3C//DTD SVG 1.1//EN" "http://www.w3.org/Graphics/SVG/1.1/DTD/svg11.dtd">
<svg version="1.1" id="Layer_1" xmlns="http://www.w3.org/2000/svg" xmlns:xlink="http://www.w3.org/1999/xlink" x="0px" y="0px"
	 width="500px" height="500px" viewBox="0 0 500 500" enable-background="new 0 0 500 500" xml:space="preserve">
<path fill="#E0883D" d="M98.834,312.41h25.597c6.525,0,11.814-3.516,11.814-7.852v-42.359h42.36c4.336,0,7.85-5.289,7.85-11.814
	v-25.597c0-6.525-3.514-11.814-7.85-11.814h-54.174H98.834h-3.963c-1.93,0-3.693,1.05-5.061,2.789
	c-1.737,1.368-2.79,3.132-2.79,5.061v3.964v25.597v54.173C87.02,308.895,92.309,312.41,98.834,312.41z"/>
<path fill="#A55E28" d="M89.974,212.974v2.658H87.02v49.226h14.768h25.598h3.962c1.931,0,3.693-1.051,5.061-2.789
	c1.739-1.367,2.791-3.133,2.791-5.061v-3.965v-25.597v-14.473H89.974z"/>
<path fill="#3080B8" d="M124.923,163.256H99.326c-6.525,0-11.814,3.514-11.814,7.85v42.36h-42.36c-4.335,0-7.85,5.29-7.85,11.814
	v25.597c0,6.525,3.515,11.814,7.85,11.814h54.174h25.597h3.964c1.93,0,3.693-1.051,5.061-2.789c1.737-1.367,2.789-3.131,2.789-5.061
	v-3.964V225.28v-54.174C136.737,166.771,131.448,163.256,124.923,163.256z"/>
<path fill="none" stroke="#3080B8" stroke-width="5.76" stroke-miterlimit="10" d="M177.249,205.517h-33.221v-33.221
	c0-8.908-6.511-16.129-14.542-16.129H94.104c-8.031,0-14.542,7.221-14.542,16.129v33.221H46.339
	c-8.907,0-16.127,6.511-16.127,14.542v35.383c0,8.031,7.221,14.541,16.127,14.541h33.223v33.223c0,8.908,6.511,16.129,14.542,16.129
	h35.382c8.032,0,14.542-7.221,14.542-16.129v-33.223h33.221c8.908,0,16.129-6.51,16.129-14.541v-35.383
	C193.378,212.028,186.157,205.517,177.249,205.517z"/>
<text transform="matrix(1 0 0 1 231.4209 174.9741)" fill="#6D6E71" font-family="'UTM-Avo'" font-size="23.3229">BỆNH VIỆN ĐA KHOA</text>
<text transform="matrix(1 0 0 1 231.4209 312.4102)" fill="#6D6E71" font-family="'UTM-Avo'" font-size="18.8097">FPITAL GENERAL HOSPITAL</text>
<text transform="matrix(1 0 0 1 231.4189 262.6914)" fill="#3080B8" font-family="'UTM-Akashi'" font-size="71.6298">FPITAL</text>
</svg>
